<?xml version="1.0" standalone="no"?>
<!DOCTYPE svg PUBLIC "-//W3C//DTD SVG 20010904//EN"
 "http://www.w3.org/TR/2001/REC-SVG-20010904/DTD/svg10.dtd">
<svg version="1.0" xmlns="http://www.w3.org/2000/svg"
 width="256.000000pt" height="256.000000pt" viewBox="0 0 256.000000 256.000000"
 preserveAspectRatio="xMidYMid meet">
<metadata>
Created by potrace 1.14, written by Peter Selinger 2001-2017
</metadata>
<g transform="translate(0.000000,256.000000) scale(0.100000,-0.100000)"
fill="#000000" stroke="none">
<path d="M1115 2184 c-23 -5 -110 -22 -140 -28 -41 -8 -122 -40 -190 -73 -150
-75 -262 -180 -349 -329 -121 -206 -155 -496 -89 -749 24 -94 97 -237 162
-317 60 -74 74 -89 146 -144 69 -53 218 -126 288 -140 10 -2 26 -5 35 -8 9 -3
34 -8 56 -12 21 -3 48 -8 60 -11 52 -12 325 -11 406 2 206 34 411 133 536 259
93 95 167 236 190 361 3 16 7 32 10 36 4 7 14 122 18 214 l1 30 -415 3 -415 2
0 -150 0 -150 156 0 157 0 -12 -33 c-31 -90 -113 -184 -193 -222 -124 -59
-301 -56 -433 7 -33 16 -109 75 -139 107 -65 72 -124 191 -137 279 -3 20 -7
48 -10 62 -6 36 -5 198 2 250 27 194 150 352 329 420 70 26 201 35 280 19 166
-35 323 -168 369 -311 5 -16 21 -18 156 -18 l150 0 0 80 c0 44 0 172 0 285 0
113 0 216 0 230 l0 25 -150 0 -149 0 -3 -70 -3 -70 -28 25 c-39 37 -157 91
-252 116 -60 16 -117 22 -230 24 -82 2 -159 1 -170 -1z"/>
</g>
</svg>
